<mxfile host="Electron" agent="Mozilla/5.0 (Macintosh; Intel Mac OS X 10_15_7) AppleWebKit/537.36 (KHTML, like Gecko) draw.io/24.7.17 Chrome/128.0.6613.36 Electron/32.0.1 Safari/537.36" version="24.7.17">
  <diagram name="Page-1" id="WSog11u5qxXGOHOt4G2P">
    <mxGraphModel dx="1114" dy="821" grid="1" gridSize="10" guides="1" tooltips="1" connect="1" arrows="1" fold="1" page="1" pageScale="1" pageWidth="827" pageHeight="1169" math="0" shadow="0">
      <root>
        <mxCell id="0" />
        <mxCell id="1" parent="0" />
        <mxCell id="5NGBl1-ncon2QLn317Wt-1" value="프로듀서" style="rounded=0;whiteSpace=wrap;html=1;" vertex="1" parent="1">
          <mxGeometry x="80" y="40" width="70" height="170" as="geometry" />
        </mxCell>
        <mxCell id="5NGBl1-ncon2QLn317Wt-3" value="브로커" style="rounded=0;whiteSpace=wrap;html=1;" vertex="1" parent="1">
          <mxGeometry x="220" y="40" width="70" height="170" as="geometry" />
        </mxCell>
        <mxCell id="5NGBl1-ncon2QLn317Wt-4" value="" style="endArrow=block;html=1;rounded=0;endFill=1;" edge="1" parent="1">
          <mxGeometry width="50" height="50" relative="1" as="geometry">
            <mxPoint x="150" y="60" as="sourcePoint" />
            <mxPoint x="220" y="60" as="targetPoint" />
          </mxGeometry>
        </mxCell>
        <mxCell id="5NGBl1-ncon2QLn317Wt-5" value="" style="endArrow=block;html=1;rounded=0;endFill=1;" edge="1" parent="1">
          <mxGeometry width="50" height="50" relative="1" as="geometry">
            <mxPoint x="150" y="80" as="sourcePoint" />
            <mxPoint x="220" y="80" as="targetPoint" />
          </mxGeometry>
        </mxCell>
        <mxCell id="5NGBl1-ncon2QLn317Wt-6" value="" style="endArrow=block;html=1;rounded=0;endFill=1;" edge="1" parent="1">
          <mxGeometry width="50" height="50" relative="1" as="geometry">
            <mxPoint x="150" y="100" as="sourcePoint" />
            <mxPoint x="220" y="100" as="targetPoint" />
          </mxGeometry>
        </mxCell>
        <mxCell id="5NGBl1-ncon2QLn317Wt-7" value="" style="endArrow=none;html=1;rounded=0;endFill=0;startArrow=block;startFill=1;" edge="1" parent="1">
          <mxGeometry width="50" height="50" relative="1" as="geometry">
            <mxPoint x="290" y="60" as="sourcePoint" />
            <mxPoint x="430" y="60" as="targetPoint" />
          </mxGeometry>
        </mxCell>
        <mxCell id="5NGBl1-ncon2QLn317Wt-8" value="" style="endArrow=block;html=1;rounded=0;endFill=1;" edge="1" parent="1">
          <mxGeometry width="50" height="50" relative="1" as="geometry">
            <mxPoint x="290" y="140" as="sourcePoint" />
            <mxPoint x="430" y="140" as="targetPoint" />
          </mxGeometry>
        </mxCell>
        <mxCell id="5NGBl1-ncon2QLn317Wt-9" value="컨슈머" style="rounded=0;whiteSpace=wrap;html=1;" vertex="1" parent="1">
          <mxGeometry x="430" y="40" width="70" height="170" as="geometry" />
        </mxCell>
        <mxCell id="5NGBl1-ncon2QLn317Wt-10" style="edgeStyle=orthogonalEdgeStyle;rounded=0;orthogonalLoop=1;jettySize=auto;html=1;entryX=1;entryY=0.5;entryDx=0;entryDy=0;curved=1;exitX=1;exitY=0.25;exitDx=0;exitDy=0;endArrow=block;endFill=1;fillColor=#f8cecc;strokeColor=#b85450;strokeWidth=2;" edge="1" parent="1" source="5NGBl1-ncon2QLn317Wt-3" target="5NGBl1-ncon2QLn317Wt-3">
          <mxGeometry relative="1" as="geometry" />
        </mxCell>
        <mxCell id="5NGBl1-ncon2QLn317Wt-11" value="메시지" style="text;html=1;align=center;verticalAlign=middle;whiteSpace=wrap;rounded=0;" vertex="1" parent="1">
          <mxGeometry x="160" y="40" width="50" height="20" as="geometry" />
        </mxCell>
        <mxCell id="5NGBl1-ncon2QLn317Wt-12" value="메시지" style="text;html=1;align=center;verticalAlign=middle;whiteSpace=wrap;rounded=0;" vertex="1" parent="1">
          <mxGeometry x="160" y="60" width="50" height="20" as="geometry" />
        </mxCell>
        <mxCell id="5NGBl1-ncon2QLn317Wt-13" value="메시지" style="text;html=1;align=center;verticalAlign=middle;whiteSpace=wrap;rounded=0;" vertex="1" parent="1">
          <mxGeometry x="160" y="80" width="50" height="20" as="geometry" />
        </mxCell>
        <mxCell id="5NGBl1-ncon2QLn317Wt-14" value="읽기 요청" style="text;html=1;align=center;verticalAlign=middle;whiteSpace=wrap;rounded=0;" vertex="1" parent="1">
          <mxGeometry x="300" y="40" width="50" height="20" as="geometry" />
        </mxCell>
        <mxCell id="5NGBl1-ncon2QLn317Wt-15" value="메시지가 충분히 쌓일 때까지 대기" style="text;html=1;align=left;verticalAlign=middle;whiteSpace=wrap;rounded=0;fontColor=#FF3333;" vertex="1" parent="1">
          <mxGeometry x="320" y="90" width="90" height="30" as="geometry" />
        </mxCell>
        <mxCell id="5NGBl1-ncon2QLn317Wt-16" value="메시지" style="text;html=1;align=center;verticalAlign=middle;whiteSpace=wrap;rounded=0;" vertex="1" parent="1">
          <mxGeometry x="340" y="140" width="50" height="20" as="geometry" />
        </mxCell>
      </root>
    </mxGraphModel>
  </diagram>
</mxfile>
